<mxfile host="65bd71144e">
    <diagram id="T2SGenoJDVw-8LUJ9btR" name="Page-1">
        <mxGraphModel dx="652" dy="725" grid="1" gridSize="10" guides="1" tooltips="1" connect="1" arrows="1" fold="1" page="1" pageScale="1" pageWidth="827" pageHeight="1169" background="#ffffff" math="0" shadow="0">
            <root>
                <mxCell id="0"/>
                <mxCell id="1" parent="0"/>
                <mxCell id="36" value="NextJS API" style="shape=umlLifeline;perimeter=lifelinePerimeter;whiteSpace=wrap;html=1;container=1;collapsible=0;recursiveResize=0;outlineConnect=0;" parent="1" vertex="1">
                    <mxGeometry x="490" y="210" width="100" height="550" as="geometry"/>
                </mxCell>
                <mxCell id="42" value="DataBase" style="shape=umlLifeline;perimeter=lifelinePerimeter;whiteSpace=wrap;html=1;container=1;collapsible=0;recursiveResize=0;outlineConnect=0;lifelineDashed=0;" parent="1" vertex="1">
                    <mxGeometry x="659" y="210" width="100" height="550" as="geometry"/>
                </mxCell>
                <mxCell id="46" value="Page" style="shape=umlLifeline;perimeter=lifelinePerimeter;whiteSpace=wrap;html=1;container=1;collapsible=0;recursiveResize=0;outlineConnect=0;" parent="1" vertex="1">
                    <mxGeometry x="110" y="210" width="100" height="550" as="geometry"/>
                </mxCell>
                <mxCell id="47" value="" style="html=1;points=[];perimeter=orthogonalPerimeter;" parent="46" vertex="1">
                    <mxGeometry x="40" y="80" width="20" height="190" as="geometry"/>
                </mxCell>
                <mxCell id="56" value="" style="html=1;points=[];perimeter=orthogonalPerimeter;" parent="46" vertex="1">
                    <mxGeometry x="40" y="310" width="20" height="90" as="geometry"/>
                </mxCell>
                <mxCell id="57" value="Click on button&lt;br&gt;Discard" style="html=1;verticalAlign=bottom;endArrow=block;entryX=0;entryY=0;" parent="46" edge="1">
                    <mxGeometry relative="1" as="geometry">
                        <mxPoint x="-70.36956521739125" y="320.0000000000001" as="sourcePoint"/>
                        <mxPoint x="40" y="320.0000000000001" as="targetPoint"/>
                    </mxGeometry>
                </mxCell>
                <mxCell id="58" value="" style="html=1;points=[];perimeter=orthogonalPerimeter;" parent="46" vertex="1">
                    <mxGeometry x="55" y="340" width="10" height="40" as="geometry"/>
                </mxCell>
                <mxCell id="59" value="signOut" style="edgeStyle=orthogonalEdgeStyle;html=1;align=left;spacingLeft=2;endArrow=block;rounded=0;entryX=1;entryY=0;" parent="46" target="58" edge="1">
                    <mxGeometry relative="1" as="geometry">
                        <mxPoint x="60" y="320" as="sourcePoint"/>
                        <Array as="points">
                            <mxPoint x="90" y="320"/>
                        </Array>
                    </mxGeometry>
                </mxCell>
                <mxCell id="62" style="edgeStyle=orthogonalEdgeStyle;html=1;entryX=1.049;entryY=0.782;entryDx=0;entryDy=0;entryPerimeter=0;rounded=0;exitX=0.975;exitY=0.962;exitDx=0;exitDy=0;exitPerimeter=0;dashed=1;" parent="46" source="60" target="47" edge="1">
                    <mxGeometry relative="1" as="geometry"/>
                </mxCell>
                <mxCell id="63" value="redirect&lt;br style=&quot;border-color: var(--border-color);&quot;&gt;to newuser page" style="edgeLabel;html=1;align=center;verticalAlign=middle;resizable=0;points=[];" parent="62" vertex="1" connectable="0">
                    <mxGeometry x="-0.2864" relative="1" as="geometry">
                        <mxPoint x="45" y="14" as="offset"/>
                    </mxGeometry>
                </mxCell>
                <mxCell id="60" value="" style="html=1;points=[];perimeter=orthogonalPerimeter;" parent="46" vertex="1">
                    <mxGeometry x="55" y="110" width="10" height="90" as="geometry"/>
                </mxCell>
                <mxCell id="61" value="signIn" style="edgeStyle=orthogonalEdgeStyle;html=1;align=left;spacingLeft=2;endArrow=block;rounded=0;entryX=1;entryY=0;" parent="46" target="60" edge="1">
                    <mxGeometry relative="1" as="geometry">
                        <mxPoint x="60" y="90" as="sourcePoint"/>
                        <Array as="points">
                            <mxPoint x="90" y="90"/>
                        </Array>
                    </mxGeometry>
                </mxCell>
                <mxCell id="65" style="edgeStyle=orthogonalEdgeStyle;html=1;entryX=1.052;entryY=0.912;entryDx=0;entryDy=0;entryPerimeter=0;rounded=0;exitX=1.23;exitY=0.967;exitDx=0;exitDy=0;exitPerimeter=0;dashed=1;" parent="46" source="58" target="56" edge="1">
                    <mxGeometry relative="1" as="geometry">
                        <mxPoint x="79.94" y="368" as="sourcePoint"/>
                        <mxPoint x="76.16999999999996" y="400" as="targetPoint"/>
                        <Array as="points">
                            <mxPoint x="80" y="379"/>
                            <mxPoint x="80" y="392"/>
                        </Array>
                    </mxGeometry>
                </mxCell>
                <mxCell id="66" value="redirect&lt;br style=&quot;border-color: var(--border-color);&quot;&gt;to index page" style="edgeLabel;html=1;align=center;verticalAlign=middle;resizable=0;points=[];" parent="65" vertex="1" connectable="0">
                    <mxGeometry x="-0.2864" relative="1" as="geometry">
                        <mxPoint x="40" y="18" as="offset"/>
                    </mxGeometry>
                </mxCell>
                <mxCell id="67" value="" style="html=1;points=[];perimeter=orthogonalPerimeter;" parent="46" vertex="1">
                    <mxGeometry x="40.37" y="440" width="20" height="70" as="geometry"/>
                </mxCell>
                <mxCell id="68" value="Click on button&lt;br&gt;Confirm" style="html=1;verticalAlign=bottom;endArrow=block;entryX=0;entryY=0;" parent="46" edge="1">
                    <mxGeometry relative="1" as="geometry">
                        <mxPoint x="-69.99956521739125" y="450.0000000000001" as="sourcePoint"/>
                        <mxPoint x="40.370000000000005" y="450.0000000000001" as="targetPoint"/>
                    </mxGeometry>
                </mxCell>
                <mxCell id="70" value="REST : adduser" style="edgeStyle=orthogonalEdgeStyle;html=1;align=left;spacingLeft=2;endArrow=block;rounded=0;entryX=-0.022;entryY=0.24;entryDx=0;entryDy=0;entryPerimeter=0;" parent="46" target="37" edge="1">
                    <mxGeometry x="0.1647" y="9" relative="1" as="geometry">
                        <mxPoint x="60.370000000000005" y="450" as="sourcePoint"/>
                        <Array as="points">
                            <mxPoint x="90" y="450"/>
                        </Array>
                        <mxPoint x="65.37" y="469.9999999999999" as="targetPoint"/>
                        <mxPoint as="offset"/>
                    </mxGeometry>
                </mxCell>
                <mxCell id="50" value="" style="html=1;verticalAlign=bottom;endArrow=open;dashed=1;endSize=8;exitX=-0.073;exitY=0.917;entryX=1.056;entryY=0.843;entryDx=0;entryDy=0;entryPerimeter=0;edgeStyle=orthogonalEdgeStyle;exitDx=0;exitDy=0;exitPerimeter=0;" parent="1" source="55" target="60" edge="1">
                    <mxGeometry x="0.0283" y="-2" relative="1" as="geometry">
                        <mxPoint x="200" y="386" as="targetPoint"/>
                        <mxPoint as="offset"/>
                    </mxGeometry>
                </mxCell>
                <mxCell id="64" value="Google Response" style="edgeLabel;html=1;align=center;verticalAlign=middle;resizable=0;points=[];" parent="50" vertex="1" connectable="0">
                    <mxGeometry x="0.6197" y="-1" relative="1" as="geometry">
                        <mxPoint x="35" y="-10" as="offset"/>
                    </mxGeometry>
                </mxCell>
                <mxCell id="51" value="REST &lt;br&gt;to Google API" style="html=1;verticalAlign=bottom;endArrow=block;exitX=1.051;exitY=0.339;exitDx=0;exitDy=0;exitPerimeter=0;" parent="1" edge="1">
                    <mxGeometry x="0.4555" y="1" relative="1" as="geometry">
                        <mxPoint x="175.51" y="351.51" as="sourcePoint"/>
                        <mxPoint x="280" y="351.51" as="targetPoint"/>
                        <mxPoint as="offset"/>
                    </mxGeometry>
                </mxCell>
                <mxCell id="52" value="" style="shape=umlLifeline;participant=umlActor;perimeter=lifelinePerimeter;whiteSpace=wrap;html=1;container=1;collapsible=0;recursiveResize=0;verticalAlign=top;spacingTop=36;outlineConnect=0;" parent="1" vertex="1">
                    <mxGeometry x="30" y="200" width="20" height="560" as="geometry"/>
                </mxCell>
                <mxCell id="53" value="Click on button&lt;br&gt;Sign in with Google" style="html=1;verticalAlign=bottom;endArrow=block;entryX=0;entryY=0;" parent="1" source="52" target="47" edge="1">
                    <mxGeometry relative="1" as="geometry">
                        <mxPoint x="80" y="290" as="sourcePoint"/>
                    </mxGeometry>
                </mxCell>
                <mxCell id="54" value="Google OAuth" style="shape=umlLifeline;perimeter=lifelinePerimeter;whiteSpace=wrap;html=1;container=1;collapsible=0;recursiveResize=0;outlineConnect=0;" parent="1" vertex="1">
                    <mxGeometry x="240" y="210" width="100" height="550" as="geometry"/>
                </mxCell>
                <mxCell id="55" value="" style="html=1;points=[];perimeter=orthogonalPerimeter;" parent="54" vertex="1">
                    <mxGeometry x="40" y="140" width="20" height="50" as="geometry"/>
                </mxCell>
                <mxCell id="74" style="edgeStyle=orthogonalEdgeStyle;rounded=0;html=1;entryX=1.115;entryY=0.922;entryDx=0;entryDy=0;entryPerimeter=0;dashed=1;exitX=-0.029;exitY=0.941;exitDx=0;exitDy=0;exitPerimeter=0;" parent="1" source="37" target="67" edge="1">
                    <mxGeometry relative="1" as="geometry"/>
                </mxCell>
                <mxCell id="75" value="return User" style="edgeLabel;html=1;align=center;verticalAlign=middle;resizable=0;points=[];" parent="74" vertex="1" connectable="0">
                    <mxGeometry x="-0.347" y="1" relative="1" as="geometry">
                        <mxPoint x="1" y="-9" as="offset"/>
                    </mxGeometry>
                </mxCell>
                <mxCell id="37" value="" style="html=1;points=[];perimeter=orthogonalPerimeter;" parent="1" vertex="1">
                    <mxGeometry x="530" y="640" width="20" height="80" as="geometry"/>
                </mxCell>
                <mxCell id="38" value="" style="html=1;points=[];perimeter=orthogonalPerimeter;" parent="1" vertex="1">
                    <mxGeometry x="540" y="670" width="20" height="40" as="geometry"/>
                </mxCell>
                <mxCell id="39" value="createUser" style="edgeStyle=orthogonalEdgeStyle;html=1;align=left;spacingLeft=2;endArrow=block;rounded=0;entryX=1;entryY=0;" parent="1" target="38" edge="1">
                    <mxGeometry relative="1" as="geometry">
                        <mxPoint x="550" y="650" as="sourcePoint"/>
                        <Array as="points">
                            <mxPoint x="580" y="650"/>
                            <mxPoint x="580" y="670"/>
                        </Array>
                    </mxGeometry>
                </mxCell>
                <mxCell id="43" value="" style="html=1;points=[];perimeter=orthogonalPerimeter;" parent="1" vertex="1">
                    <mxGeometry x="700" y="686" width="18" height="30" as="geometry"/>
                </mxCell>
                <mxCell id="49" value="SQL : Insert User" style="html=1;verticalAlign=bottom;endArrow=block;entryX=0;entryY=0;exitX=0.98;exitY=0.256;exitDx=0;exitDy=0;exitPerimeter=0;edgeStyle=orthogonalEdgeStyle;" parent="1" edge="1">
                    <mxGeometry x="0.1453" relative="1" as="geometry">
                        <mxPoint x="559.6" y="686.24" as="sourcePoint"/>
                        <Array as="points">
                            <mxPoint x="630" y="686"/>
                            <mxPoint x="699" y="686"/>
                        </Array>
                        <mxPoint as="offset"/>
                        <mxPoint x="700" y="686" as="targetPoint"/>
                    </mxGeometry>
                </mxCell>
                <mxCell id="76" style="edgeStyle=orthogonalEdgeStyle;rounded=0;html=1;dashed=1;" parent="1" source="67" target="52" edge="1">
                    <mxGeometry relative="1" as="geometry">
                        <Array as="points">
                            <mxPoint x="130" y="720"/>
                            <mxPoint x="130" y="720"/>
                        </Array>
                    </mxGeometry>
                </mxCell>
                <mxCell id="77" value="Account created" style="edgeLabel;html=1;align=center;verticalAlign=middle;resizable=0;points=[];" parent="76" vertex="1" connectable="0">
                    <mxGeometry x="0.3106" y="-1" relative="1" as="geometry">
                        <mxPoint x="22" y="-9" as="offset"/>
                    </mxGeometry>
                </mxCell>
            </root>
        </mxGraphModel>
    </diagram>
</mxfile>